<svg xmlns="http://www.w3.org/2000/svg" width="11.886" height="10.792" viewBox="0 0 11.886 10.792">
  <g id="Group_1" data-name="Group 1" transform="translate(-374 -888.688)">
    <path id="XMLID_223_" d="M76.184,5.4,80.743.838a.491.491,0,1,0-.694-.694L75.144,5.05a.49.49,0,0,0,0,.694l4.905,4.905a.491.491,0,0,0,.694-.694Z" transform="translate(454.886 899.48) rotate(180)"/>
    <path id="XMLID_223_2" data-name="XMLID_223_" d="M76.184,5.4,80.743.838a.491.491,0,1,0-.694-.694L75.144,5.05a.49.49,0,0,0,0,.694l4.905,4.905a.491.491,0,0,0,.694-.694Z" transform="translate(460.886 899.48) rotate(180)"/>
  </g>
</svg>
