<svg xmlns="http://www.w3.org/2000/svg" width="24.898" height="24.9" viewBox="0 0 24.898 24.9">
  <path id="home_1_" data-name="home (1)" d="M24.228,10.83l0,0L14.069.672a2.292,2.292,0,0,0-3.242,0L.675,10.823l-.01.01a2.291,2.291,0,0,0,1.525,3.905q.035,0,.071,0h.4v7.475A2.686,2.686,0,0,0,5.349,24.9H9.323a.73.73,0,0,0,.729-.729V18.31a1.225,1.225,0,0,1,1.224-1.224H13.62a1.225,1.225,0,0,1,1.224,1.224v5.86a.729.729,0,0,0,.729.729h3.974a2.686,2.686,0,0,0,2.683-2.683V14.743h.375a2.293,2.293,0,0,0,1.622-3.912Zm0,0" transform="translate(0.001)" fill="#9e9e9e"/>
</svg>
