<svg xmlns="http://www.w3.org/2000/svg" width="22.358" height="24.978" viewBox="0 0 22.358 24.978">
  <g id="user" transform="translate(-24.165)">
    <g id="Group_15" data-name="Group 15" transform="translate(28.86)">
      <g id="Group_14" data-name="Group 14">
        <path id="Path_136" data-name="Path 136" d="M117.276,0a6.485,6.485,0,1,0,6.485,6.485A6.5,6.5,0,0,0,117.276,0Z" transform="translate(-110.791)" fill="#9e9e9e"/>
      </g>
    </g>
    <g id="Group_17" data-name="Group 17" transform="translate(24.165 13.434)">
      <g id="Group_16" data-name="Group 16" transform="translate(0)">
        <path id="Path_137" data-name="Path 137" d="M46.475,252.559a6.047,6.047,0,0,0-.651-1.189,8.061,8.061,0,0,0-5.579-3.512,1.194,1.194,0,0,0-.821.2,6.913,6.913,0,0,1-8.156,0,1.063,1.063,0,0,0-.821-.2,8,8,0,0,0-5.579,3.512,6.971,6.971,0,0,0-.651,1.189.6.6,0,0,0,.028.538,11.3,11.3,0,0,0,.765,1.133,10.764,10.764,0,0,0,1.3,1.473,16.982,16.982,0,0,0,1.3,1.133,12.914,12.914,0,0,0,15.406,0,12.455,12.455,0,0,0,1.3-1.133,13.08,13.08,0,0,0,1.3-1.473,9.928,9.928,0,0,0,.765-1.133A.483.483,0,0,0,46.475,252.559Z" transform="translate(-24.165 -247.841)" fill="#9e9e9e"/>
      </g>
    </g>
  </g>
</svg>
